<?xml version="1.0" encoding="utf-8" standalone="no"?>
<!DOCTYPE svg PUBLIC "-//W3C//DTD SVG 1.1//EN"
  "http://www.w3.org/Graphics/SVG/1.1/DTD/svg11.dtd">
<svg xmlns:xlink="http://www.w3.org/1999/xlink" width="460.8pt" height="345.6pt" viewBox="0 0 460.8 345.6" xmlns="http://www.w3.org/2000/svg" version="1.1">
 <metadata>
  <rdf:RDF xmlns:dc="http://purl.org/dc/elements/1.1/" xmlns:cc="http://creativecommons.org/ns#" xmlns:rdf="http://www.w3.org/1999/02/22-rdf-syntax-ns#">
   <cc:Work>
    <dc:type rdf:resource="http://purl.org/dc/dcmitype/StillImage"/>
    <dc:date>2025-04-28T01:30:10.152631</dc:date>
    <dc:format>image/svg+xml</dc:format>
    <dc:creator>
     <cc:Agent>
      <dc:title>Matplotlib v3.9.2, https://matplotlib.org/</dc:title>
     </cc:Agent>
    </dc:creator>
   </cc:Work>
  </rdf:RDF>
 </metadata>
 <defs>
  <style type="text/css">*{stroke-linejoin: round; stroke-linecap: butt}</style>
 </defs>
 <g id="figure_1">
  <g id="patch_1">
   <path d="M 0 345.6 
L 460.8 345.6 
L 460.8 0 
L 0 0 
z
" style="fill: #ffffff"/>
  </g>
  <g id="axes_1">
   <g id="patch_2">
    <path d="M 57.6 307.584 
L 414.72 307.584 
L 414.72 41.472 
L 57.6 41.472 
z
" style="fill: #ffffff"/>
   </g>
   <g id="matplotlib.axis_1">
    <g id="xtick_1">
     <g id="line2d_1">
      <defs>
       <path id="ma6aa6f92b2" d="M 0 0 
L 0 3.5 
" style="stroke: #000000; stroke-width: 0.8"/>
      </defs>
      <g>
       <use xlink:href="#ma6aa6f92b2" x="73.832727" y="307.584" style="stroke: #000000; stroke-width: 0.8"/>
      </g>
     </g>
     <g id="text_1">
      <text style="font: 10px 'DejaVu Sans', 'Bitstream Vera Sans', 'Computer Modern Sans Serif', 'Lucida Grande', 'Verdana', 'Geneva', 'Lucid', 'Arial', 'Helvetica', 'Avant Garde', sans-serif; text-anchor: middle" x="73.832727" y="322.182437" transform="rotate(-0 73.832727 322.182437)">0.0</text>
     </g>
    </g>
    <g id="xtick_2">
     <g id="line2d_2">
      <g>
       <use xlink:href="#ma6aa6f92b2" x="138.763636" y="307.584" style="stroke: #000000; stroke-width: 0.8"/>
      </g>
     </g>
     <g id="text_2">
      <text style="font: 10px 'DejaVu Sans', 'Bitstream Vera Sans', 'Computer Modern Sans Serif', 'Lucida Grande', 'Verdana', 'Geneva', 'Lucid', 'Arial', 'Helvetica', 'Avant Garde', sans-serif; text-anchor: middle" x="138.763636" y="322.182437" transform="rotate(-0 138.763636 322.182437)">0.2</text>
     </g>
    </g>
    <g id="xtick_3">
     <g id="line2d_3">
      <g>
       <use xlink:href="#ma6aa6f92b2" x="203.694545" y="307.584" style="stroke: #000000; stroke-width: 0.8"/>
      </g>
     </g>
     <g id="text_3">
      <text style="font: 10px 'DejaVu Sans', 'Bitstream Vera Sans', 'Computer Modern Sans Serif', 'Lucida Grande', 'Verdana', 'Geneva', 'Lucid', 'Arial', 'Helvetica', 'Avant Garde', sans-serif; text-anchor: middle" x="203.694545" y="322.182437" transform="rotate(-0 203.694545 322.182437)">0.4</text>
     </g>
    </g>
    <g id="xtick_4">
     <g id="line2d_4">
      <g>
       <use xlink:href="#ma6aa6f92b2" x="268.625455" y="307.584" style="stroke: #000000; stroke-width: 0.8"/>
      </g>
     </g>
     <g id="text_4">
      <text style="font: 10px 'DejaVu Sans', 'Bitstream Vera Sans', 'Computer Modern Sans Serif', 'Lucida Grande', 'Verdana', 'Geneva', 'Lucid', 'Arial', 'Helvetica', 'Avant Garde', sans-serif; text-anchor: middle" x="268.625455" y="322.182437" transform="rotate(-0 268.625455 322.182437)">0.6</text>
     </g>
    </g>
    <g id="xtick_5">
     <g id="line2d_5">
      <g>
       <use xlink:href="#ma6aa6f92b2" x="333.556364" y="307.584" style="stroke: #000000; stroke-width: 0.8"/>
      </g>
     </g>
     <g id="text_5">
      <text style="font: 10px 'DejaVu Sans', 'Bitstream Vera Sans', 'Computer Modern Sans Serif', 'Lucida Grande', 'Verdana', 'Geneva', 'Lucid', 'Arial', 'Helvetica', 'Avant Garde', sans-serif; text-anchor: middle" x="333.556364" y="322.182437" transform="rotate(-0 333.556364 322.182437)">0.8</text>
     </g>
    </g>
    <g id="xtick_6">
     <g id="line2d_6">
      <g>
       <use xlink:href="#ma6aa6f92b2" x="398.487273" y="307.584" style="stroke: #000000; stroke-width: 0.8"/>
      </g>
     </g>
     <g id="text_6">
      <text style="font: 10px 'DejaVu Sans', 'Bitstream Vera Sans', 'Computer Modern Sans Serif', 'Lucida Grande', 'Verdana', 'Geneva', 'Lucid', 'Arial', 'Helvetica', 'Avant Garde', sans-serif; text-anchor: middle" x="398.487273" y="322.182437" transform="rotate(-0 398.487273 322.182437)">1.0</text>
     </g>
    </g>
   </g>
   <g id="matplotlib.axis_2">
    <g id="ytick_1">
     <g id="line2d_7">
      <defs>
       <path id="m855019cbd3" d="M 0 0 
L -3.5 0 
" style="stroke: #000000; stroke-width: 0.8"/>
      </defs>
      <g>
       <use xlink:href="#m855019cbd3" x="57.6" y="287.667809" style="stroke: #000000; stroke-width: 0.8"/>
      </g>
     </g>
     <g id="text_7">
      <text style="font: 10px 'DejaVu Sans', 'Bitstream Vera Sans', 'Computer Modern Sans Serif', 'Lucida Grande', 'Verdana', 'Geneva', 'Lucid', 'Arial', 'Helvetica', 'Avant Garde', sans-serif; text-anchor: end" x="50.6" y="291.467028" transform="rotate(-0 50.6 291.467028)">−0.2</text>
     </g>
    </g>
    <g id="ytick_2">
     <g id="line2d_8">
      <g>
       <use xlink:href="#m855019cbd3" x="57.6" y="250.417878" style="stroke: #000000; stroke-width: 0.8"/>
      </g>
     </g>
     <g id="text_8">
      <text style="font: 10px 'DejaVu Sans', 'Bitstream Vera Sans', 'Computer Modern Sans Serif', 'Lucida Grande', 'Verdana', 'Geneva', 'Lucid', 'Arial', 'Helvetica', 'Avant Garde', sans-serif; text-anchor: end" x="50.6" y="254.217097" transform="rotate(-0 50.6 254.217097)">0.0</text>
     </g>
    </g>
    <g id="ytick_3">
     <g id="line2d_9">
      <g>
       <use xlink:href="#m855019cbd3" x="57.6" y="213.167947" style="stroke: #000000; stroke-width: 0.8"/>
      </g>
     </g>
     <g id="text_9">
      <text style="font: 10px 'DejaVu Sans', 'Bitstream Vera Sans', 'Computer Modern Sans Serif', 'Lucida Grande', 'Verdana', 'Geneva', 'Lucid', 'Arial', 'Helvetica', 'Avant Garde', sans-serif; text-anchor: end" x="50.6" y="216.967166" transform="rotate(-0 50.6 216.967166)">0.2</text>
     </g>
    </g>
    <g id="ytick_4">
     <g id="line2d_10">
      <g>
       <use xlink:href="#m855019cbd3" x="57.6" y="175.918016" style="stroke: #000000; stroke-width: 0.8"/>
      </g>
     </g>
     <g id="text_10">
      <text style="font: 10px 'DejaVu Sans', 'Bitstream Vera Sans', 'Computer Modern Sans Serif', 'Lucida Grande', 'Verdana', 'Geneva', 'Lucid', 'Arial', 'Helvetica', 'Avant Garde', sans-serif; text-anchor: end" x="50.6" y="179.717235" transform="rotate(-0 50.6 179.717235)">0.4</text>
     </g>
    </g>
    <g id="ytick_5">
     <g id="line2d_11">
      <g>
       <use xlink:href="#m855019cbd3" x="57.6" y="138.668085" style="stroke: #000000; stroke-width: 0.8"/>
      </g>
     </g>
     <g id="text_11">
      <text style="font: 10px 'DejaVu Sans', 'Bitstream Vera Sans', 'Computer Modern Sans Serif', 'Lucida Grande', 'Verdana', 'Geneva', 'Lucid', 'Arial', 'Helvetica', 'Avant Garde', sans-serif; text-anchor: end" x="50.6" y="142.467304" transform="rotate(-0 50.6 142.467304)">0.6</text>
     </g>
    </g>
    <g id="ytick_6">
     <g id="line2d_12">
      <g>
       <use xlink:href="#m855019cbd3" x="57.6" y="101.418155" style="stroke: #000000; stroke-width: 0.8"/>
      </g>
     </g>
     <g id="text_12">
      <text style="font: 10px 'DejaVu Sans', 'Bitstream Vera Sans', 'Computer Modern Sans Serif', 'Lucida Grande', 'Verdana', 'Geneva', 'Lucid', 'Arial', 'Helvetica', 'Avant Garde', sans-serif; text-anchor: end" x="50.6" y="105.217373" transform="rotate(-0 50.6 105.217373)">0.8</text>
     </g>
    </g>
    <g id="ytick_7">
     <g id="line2d_13">
      <g>
       <use xlink:href="#m855019cbd3" x="57.6" y="64.168224" style="stroke: #000000; stroke-width: 0.8"/>
      </g>
     </g>
     <g id="text_13">
      <text style="font: 10px 'DejaVu Sans', 'Bitstream Vera Sans', 'Computer Modern Sans Serif', 'Lucida Grande', 'Verdana', 'Geneva', 'Lucid', 'Arial', 'Helvetica', 'Avant Garde', sans-serif; text-anchor: end" x="50.6" y="67.967443" transform="rotate(-0 50.6 67.967443)">1.0</text>
     </g>
    </g>
   </g>
   <g id="line2d_14">
    <path d="M 73.832727 250.417878 
L 77.079273 280.31512 
L 80.325818 295.487835 
L 83.572364 289.678421 
L 86.818909 268.111139 
L 90.065455 243.528871 
L 93.312 228.387191 
L 96.558545 228.322105 
L 99.805091 240.407236 
L 103.051636 256.279411 
L 106.298182 267.463599 
L 109.544727 269.620197 
L 112.791273 263.767813 
L 116.037818 254.565655 
L 119.284364 247.210512 
L 122.530909 244.806217 
L 125.777455 247.365917 
L 129.024 252.52522 
L 132.270545 257.21011 
L 135.517091 259.246148 
L 138.763636 258.181686 
L 142.010182 255.137637 
L 145.256727 251.978607 
L 148.503273 250.319314 
L 151.749818 250.8234 
L 154.996364 253.024708 
L 158.242909 255.651322 
L 161.489455 257.257262 
L 164.736 256.897366 
L 167.982545 254.595718 
L 171.229091 251.429278 
L 174.475636 249.158575 
L 177.722182 249.483323 
L 180.968727 253.153758 
L 184.215273 259.280014 
L 187.461818 265.177309 
L 190.708364 266.932204 
L 193.954909 260.5949 
L 197.201455 243.610559 
L 200.448 215.938851 
L 203.694545 180.377588 
L 206.941091 141.905678 
L 210.187636 106.262325 
L 213.434182 78.29743 
L 216.680727 60.706557 
L 219.927273 53.568 
L 223.173818 54.734551 
L 226.420364 60.7911 
L 229.666909 68.131405 
L 232.913455 73.788945 
L 236.16 75.886173 
L 239.406545 73.788907 
L 242.653091 68.131311 
L 245.899636 60.790974 
L 249.146182 54.73449 
L 252.392727 53.568002 
L 255.639273 60.706626 
L 258.885818 78.297495 
L 262.132364 106.262403 
L 265.378909 141.905774 
L 268.625455 180.377636 
L 271.872 215.93883 
L 275.118545 243.61046 
L 278.365091 260.594739 
L 281.611636 266.932114 
L 284.858182 265.177285 
L 288.104727 259.28006 
L 291.351273 253.153854 
L 294.597818 249.483425 
L 297.844364 249.158727 
L 301.090909 251.429346 
L 304.337455 254.595678 
L 307.584 256.897215 
L 310.830545 257.257076 
L 314.077091 255.651207 
L 317.323636 253.024687 
L 320.570182 250.82347 
L 323.816727 250.319454 
L 327.063273 251.978757 
L 330.309818 255.137757 
L 333.556364 258.181737 
L 336.802909 259.246065 
L 340.049455 257.209941 
L 343.296 252.52507 
L 346.542545 247.365789 
L 349.789091 244.806215 
L 353.035636 247.210588 
L 356.282182 254.565806 
L 359.528727 263.767969 
L 362.775273 269.620309 
L 366.021818 267.463632 
L 369.268364 256.279326 
L 372.514909 240.407075 
L 375.761455 228.321919 
L 379.008 228.387085 
L 382.254545 243.528859 
L 385.501091 268.111248 
L 388.747636 289.678583 
L 391.994182 295.488 
L 395.240727 280.315224 
L 398.487273 250.417878 
" clip-path="url(#pf1153564da)" style="fill: none; stroke: #1f77b4; stroke-width: 1.5; stroke-linecap: square"/>
   </g>
   <g id="line2d_15">
    <path d="M 73.832727 250.417878 
L 77.079273 250.417878 
L 80.325818 250.417878 
L 83.572364 250.417878 
L 86.818909 250.417878 
L 90.065455 250.417878 
L 93.312 250.417878 
L 96.558545 250.417878 
L 99.805091 250.417878 
L 103.051636 250.417878 
L 106.298182 250.417878 
L 109.544727 250.417878 
L 112.791273 250.417878 
L 116.037818 250.417878 
L 119.284364 250.417878 
L 122.530909 250.417878 
L 125.777455 250.417878 
L 129.024 250.417878 
L 132.270545 250.417878 
L 135.517091 250.417878 
L 138.763636 250.417878 
L 142.010182 250.417878 
L 145.256727 250.417878 
L 148.503273 250.417878 
L 151.749818 250.417878 
L 154.996364 250.417878 
L 158.242909 250.417878 
L 161.489455 250.417878 
L 164.736 250.417878 
L 167.982545 250.417878 
L 171.229091 250.417878 
L 174.475636 250.417878 
L 177.722182 250.417878 
L 180.968727 250.417878 
L 184.215273 250.417878 
L 187.461818 250.417878 
L 190.708364 250.417878 
L 193.954909 250.417878 
L 197.201455 250.417878 
L 200.448 250.417878 
L 203.694545 250.417878 
L 206.941091 64.168224 
L 210.187636 64.168224 
L 213.434182 64.168224 
L 216.680727 64.168224 
L 219.927273 64.168224 
L 223.173818 64.168224 
L 226.420364 64.168224 
L 229.666909 64.168224 
L 232.913455 64.168224 
L 236.16 64.168224 
L 239.406545 64.168224 
L 242.653091 64.168224 
L 245.899636 64.168224 
L 249.146182 64.168224 
L 252.392727 64.168224 
L 255.639273 64.168224 
L 258.885818 64.168224 
L 262.132364 64.168224 
L 265.378909 64.168224 
L 268.625455 250.417878 
L 271.872 250.417878 
L 275.118545 250.417878 
L 278.365091 250.417878 
L 281.611636 250.417878 
L 284.858182 250.417878 
L 288.104727 250.417878 
L 291.351273 250.417878 
L 294.597818 250.417878 
L 297.844364 250.417878 
L 301.090909 250.417878 
L 304.337455 250.417878 
L 307.584 250.417878 
L 310.830545 250.417878 
L 314.077091 250.417878 
L 317.323636 250.417878 
L 320.570182 250.417878 
L 323.816727 250.417878 
L 327.063273 250.417878 
L 330.309818 250.417878 
L 333.556364 250.417878 
L 336.802909 250.417878 
L 340.049455 250.417878 
L 343.296 250.417878 
L 346.542545 250.417878 
L 349.789091 250.417878 
L 353.035636 250.417878 
L 356.282182 250.417878 
L 359.528727 250.417878 
L 362.775273 250.417878 
L 366.021818 250.417878 
L 369.268364 250.417878 
L 372.514909 250.417878 
L 375.761455 250.417878 
L 379.008 250.417878 
L 382.254545 250.417878 
L 385.501091 250.417878 
L 388.747636 250.417878 
L 391.994182 250.417878 
L 395.240727 250.417878 
L 398.487273 250.417878 
" clip-path="url(#pf1153564da)" style="fill: none; stroke: #ff0000; stroke-width: 1.5; stroke-linecap: square"/>
   </g>
   <g id="patch_3">
    <path d="M 57.6 307.584 
L 57.6 41.472 
" style="fill: none; stroke: #000000; stroke-width: 0.8; stroke-linejoin: miter; stroke-linecap: square"/>
   </g>
   <g id="patch_4">
    <path d="M 414.72 307.584 
L 414.72 41.472 
" style="fill: none; stroke: #000000; stroke-width: 0.8; stroke-linejoin: miter; stroke-linecap: square"/>
   </g>
   <g id="patch_5">
    <path d="M 57.6 307.584 
L 414.72 307.584 
" style="fill: none; stroke: #000000; stroke-width: 0.8; stroke-linejoin: miter; stroke-linecap: square"/>
   </g>
   <g id="patch_6">
    <path d="M 57.6 41.472 
L 414.72 41.472 
" style="fill: none; stroke: #000000; stroke-width: 0.8; stroke-linejoin: miter; stroke-linecap: square"/>
   </g>
  </g>
 </g>
 <defs>
  <clipPath id="pf1153564da">
   <rect x="57.6" y="41.472" width="357.12" height="266.112"/>
  </clipPath>
 </defs>
</svg>
