<?xml version="1.0" encoding="utf-8" standalone="no"?>
<!DOCTYPE svg PUBLIC "-//W3C//DTD SVG 1.1//EN"
  "http://www.w3.org/Graphics/SVG/1.1/DTD/svg11.dtd">
<svg xmlns:xlink="http://www.w3.org/1999/xlink" width="460.8pt" height="345.6pt" viewBox="0 0 460.8 345.6" xmlns="http://www.w3.org/2000/svg" version="1.1">
 <metadata>
  <rdf:RDF xmlns:dc="http://purl.org/dc/elements/1.1/" xmlns:cc="http://creativecommons.org/ns#" xmlns:rdf="http://www.w3.org/1999/02/22-rdf-syntax-ns#">
   <cc:Work>
    <dc:type rdf:resource="http://purl.org/dc/dcmitype/StillImage"/>
    <dc:date>2025-04-28T04:34:39.375136</dc:date>
    <dc:format>image/svg+xml</dc:format>
    <dc:creator>
     <cc:Agent>
      <dc:title>Matplotlib v3.9.2, https://matplotlib.org/</dc:title>
     </cc:Agent>
    </dc:creator>
   </cc:Work>
  </rdf:RDF>
 </metadata>
 <defs>
  <style type="text/css">*{stroke-linejoin: round; stroke-linecap: butt}</style>
 </defs>
 <g id="figure_1">
  <g id="patch_1">
   <path d="M 0 345.6 
L 460.8 345.6 
L 460.8 0 
L 0 0 
z
" style="fill: #ffffff"/>
  </g>
  <g id="axes_1">
   <g id="patch_2">
    <path d="M 57.6 307.584 
L 414.72 307.584 
L 414.72 41.472 
L 57.6 41.472 
z
" style="fill: #ffffff"/>
   </g>
   <g id="matplotlib.axis_1">
    <g id="xtick_1">
     <g id="line2d_1">
      <defs>
       <path id="mb12e97e386" d="M 0 0 
L 0 3.5 
" style="stroke: #000000; stroke-width: 0.8"/>
      </defs>
      <g>
       <use xlink:href="#mb12e97e386" x="73.832727" y="307.584" style="stroke: #000000; stroke-width: 0.8"/>
      </g>
     </g>
     <g id="text_1">
      <text style="font: 10px 'DejaVu Sans', 'Bitstream Vera Sans', 'Computer Modern Sans Serif', 'Lucida Grande', 'Verdana', 'Geneva', 'Lucid', 'Arial', 'Helvetica', 'Avant Garde', sans-serif; text-anchor: middle" x="73.832727" y="322.182437" transform="rotate(-0 73.832727 322.182437)">0.0</text>
     </g>
    </g>
    <g id="xtick_2">
     <g id="line2d_2">
      <g>
       <use xlink:href="#mb12e97e386" x="138.763636" y="307.584" style="stroke: #000000; stroke-width: 0.8"/>
      </g>
     </g>
     <g id="text_2">
      <text style="font: 10px 'DejaVu Sans', 'Bitstream Vera Sans', 'Computer Modern Sans Serif', 'Lucida Grande', 'Verdana', 'Geneva', 'Lucid', 'Arial', 'Helvetica', 'Avant Garde', sans-serif; text-anchor: middle" x="138.763636" y="322.182437" transform="rotate(-0 138.763636 322.182437)">0.2</text>
     </g>
    </g>
    <g id="xtick_3">
     <g id="line2d_3">
      <g>
       <use xlink:href="#mb12e97e386" x="203.694545" y="307.584" style="stroke: #000000; stroke-width: 0.8"/>
      </g>
     </g>
     <g id="text_3">
      <text style="font: 10px 'DejaVu Sans', 'Bitstream Vera Sans', 'Computer Modern Sans Serif', 'Lucida Grande', 'Verdana', 'Geneva', 'Lucid', 'Arial', 'Helvetica', 'Avant Garde', sans-serif; text-anchor: middle" x="203.694545" y="322.182437" transform="rotate(-0 203.694545 322.182437)">0.4</text>
     </g>
    </g>
    <g id="xtick_4">
     <g id="line2d_4">
      <g>
       <use xlink:href="#mb12e97e386" x="268.625455" y="307.584" style="stroke: #000000; stroke-width: 0.8"/>
      </g>
     </g>
     <g id="text_4">
      <text style="font: 10px 'DejaVu Sans', 'Bitstream Vera Sans', 'Computer Modern Sans Serif', 'Lucida Grande', 'Verdana', 'Geneva', 'Lucid', 'Arial', 'Helvetica', 'Avant Garde', sans-serif; text-anchor: middle" x="268.625455" y="322.182437" transform="rotate(-0 268.625455 322.182437)">0.6</text>
     </g>
    </g>
    <g id="xtick_5">
     <g id="line2d_5">
      <g>
       <use xlink:href="#mb12e97e386" x="333.556364" y="307.584" style="stroke: #000000; stroke-width: 0.8"/>
      </g>
     </g>
     <g id="text_5">
      <text style="font: 10px 'DejaVu Sans', 'Bitstream Vera Sans', 'Computer Modern Sans Serif', 'Lucida Grande', 'Verdana', 'Geneva', 'Lucid', 'Arial', 'Helvetica', 'Avant Garde', sans-serif; text-anchor: middle" x="333.556364" y="322.182437" transform="rotate(-0 333.556364 322.182437)">0.8</text>
     </g>
    </g>
    <g id="xtick_6">
     <g id="line2d_6">
      <g>
       <use xlink:href="#mb12e97e386" x="398.487273" y="307.584" style="stroke: #000000; stroke-width: 0.8"/>
      </g>
     </g>
     <g id="text_6">
      <text style="font: 10px 'DejaVu Sans', 'Bitstream Vera Sans', 'Computer Modern Sans Serif', 'Lucida Grande', 'Verdana', 'Geneva', 'Lucid', 'Arial', 'Helvetica', 'Avant Garde', sans-serif; text-anchor: middle" x="398.487273" y="322.182437" transform="rotate(-0 398.487273 322.182437)">1.0</text>
     </g>
    </g>
   </g>
   <g id="matplotlib.axis_2">
    <g id="ytick_1">
     <g id="line2d_7">
      <defs>
       <path id="mbed889773a" d="M 0 0 
L -3.5 0 
" style="stroke: #000000; stroke-width: 0.8"/>
      </defs>
      <g>
       <use xlink:href="#mbed889773a" x="57.6" y="281.568472" style="stroke: #000000; stroke-width: 0.8"/>
      </g>
     </g>
     <g id="text_7">
      <text style="font: 10px 'DejaVu Sans', 'Bitstream Vera Sans', 'Computer Modern Sans Serif', 'Lucida Grande', 'Verdana', 'Geneva', 'Lucid', 'Arial', 'Helvetica', 'Avant Garde', sans-serif; text-anchor: end" x="50.6" y="285.367691" transform="rotate(-0 50.6 285.367691)">0.0</text>
     </g>
    </g>
    <g id="ytick_2">
     <g id="line2d_8">
      <g>
       <use xlink:href="#mbed889773a" x="57.6" y="237.658355" style="stroke: #000000; stroke-width: 0.8"/>
      </g>
     </g>
     <g id="text_8">
      <text style="font: 10px 'DejaVu Sans', 'Bitstream Vera Sans', 'Computer Modern Sans Serif', 'Lucida Grande', 'Verdana', 'Geneva', 'Lucid', 'Arial', 'Helvetica', 'Avant Garde', sans-serif; text-anchor: end" x="50.6" y="241.457574" transform="rotate(-0 50.6 241.457574)">0.2</text>
     </g>
    </g>
    <g id="ytick_3">
     <g id="line2d_9">
      <g>
       <use xlink:href="#mbed889773a" x="57.6" y="193.748239" style="stroke: #000000; stroke-width: 0.8"/>
      </g>
     </g>
     <g id="text_9">
      <text style="font: 10px 'DejaVu Sans', 'Bitstream Vera Sans', 'Computer Modern Sans Serif', 'Lucida Grande', 'Verdana', 'Geneva', 'Lucid', 'Arial', 'Helvetica', 'Avant Garde', sans-serif; text-anchor: end" x="50.6" y="197.547457" transform="rotate(-0 50.6 197.547457)">0.4</text>
     </g>
    </g>
    <g id="ytick_4">
     <g id="line2d_10">
      <g>
       <use xlink:href="#mbed889773a" x="57.6" y="149.838122" style="stroke: #000000; stroke-width: 0.8"/>
      </g>
     </g>
     <g id="text_10">
      <text style="font: 10px 'DejaVu Sans', 'Bitstream Vera Sans', 'Computer Modern Sans Serif', 'Lucida Grande', 'Verdana', 'Geneva', 'Lucid', 'Arial', 'Helvetica', 'Avant Garde', sans-serif; text-anchor: end" x="50.6" y="153.63734" transform="rotate(-0 50.6 153.63734)">0.6</text>
     </g>
    </g>
    <g id="ytick_5">
     <g id="line2d_11">
      <g>
       <use xlink:href="#mbed889773a" x="57.6" y="105.928005" style="stroke: #000000; stroke-width: 0.8"/>
      </g>
     </g>
     <g id="text_11">
      <text style="font: 10px 'DejaVu Sans', 'Bitstream Vera Sans', 'Computer Modern Sans Serif', 'Lucida Grande', 'Verdana', 'Geneva', 'Lucid', 'Arial', 'Helvetica', 'Avant Garde', sans-serif; text-anchor: end" x="50.6" y="109.727224" transform="rotate(-0 50.6 109.727224)">0.8</text>
     </g>
    </g>
    <g id="ytick_6">
     <g id="line2d_12">
      <g>
       <use xlink:href="#mbed889773a" x="57.6" y="62.017888" style="stroke: #000000; stroke-width: 0.8"/>
      </g>
     </g>
     <g id="text_12">
      <text style="font: 10px 'DejaVu Sans', 'Bitstream Vera Sans', 'Computer Modern Sans Serif', 'Lucida Grande', 'Verdana', 'Geneva', 'Lucid', 'Arial', 'Helvetica', 'Avant Garde', sans-serif; text-anchor: end" x="50.6" y="65.817107" transform="rotate(-0 50.6 65.817107)">1.0</text>
     </g>
    </g>
   </g>
   <g id="line2d_13">
    <path d="M 73.832727 281.568476 
L 77.079273 280.798383 
L 80.325818 280.197133 
L 83.572364 279.880145 
L 86.818909 279.877692 
L 90.065455 280.135575 
L 93.312 280.542797 
L 96.558545 280.971744 
L 99.805091 281.313968 
L 103.051636 281.501752 
L 106.298182 281.513528 
L 109.544727 281.367576 
L 112.791273 281.110722 
L 116.037818 280.807205 
L 119.284364 280.529441 
L 122.530909 280.349785 
L 125.777455 280.33032 
L 129.024 280.509418 
L 132.270545 280.885463 
L 135.517091 281.402294 
L 138.763636 281.943186 
L 142.010182 282.3413 
L 145.256727 282.411255 
L 148.503273 282.001693 
L 151.749818 281.059579 
L 154.996364 279.68938 
L 158.242909 278.184218 
L 161.489455 277.007089 
L 164.736 276.707551 
L 167.982545 277.776216 
L 171.229091 280.459171 
L 174.475636 284.575105 
L 177.722182 289.390493 
L 180.968727 293.605902 
L 184.215273 295.487983 
L 187.461818 293.147567 
L 190.708364 284.920429 
L 193.954909 269.772374 
L 197.201455 247.625763 
L 200.448 219.513563 
L 203.694545 187.500701 
L 206.941091 154.36723 
L 210.187636 123.113195 
L 213.434182 96.393122 
L 216.680727 76.015077 
L 219.927273 62.625937 
L 223.173818 55.660327 
L 226.420364 53.568 
L 229.666909 54.263029 
L 232.913455 55.685847 
L 236.16 56.341721 
L 239.406545 55.685856 
L 242.653091 54.263063 
L 245.899636 53.568016 
L 249.146182 55.660306 
L 252.392727 62.625943 
L 255.639273 76.015132 
L 258.885818 96.393113 
L 262.132364 123.113165 
L 265.378909 154.367232 
L 268.625455 187.500672 
L 271.872 219.513537 
L 275.118545 247.625753 
L 278.365091 269.772374 
L 281.611636 284.920445 
L 284.858182 293.147578 
L 288.104727 295.488 
L 291.351273 293.605914 
L 294.597818 289.390501 
L 297.844364 284.575097 
L 301.090909 280.459188 
L 304.337455 277.776213 
L 307.584 276.707554 
L 310.830545 277.007075 
L 314.077091 278.184204 
L 317.323636 279.689345 
L 320.570182 281.059565 
L 323.816727 282.001694 
L 327.063273 282.411278 
L 330.309818 282.341318 
L 333.556364 281.943197 
L 336.802909 281.402305 
L 340.049455 280.885472 
L 343.296 280.509415 
L 346.542545 280.330318 
L 349.789091 280.349785 
L 353.035636 280.529438 
L 356.282182 280.80719 
L 359.528727 281.11071 
L 362.775273 281.367579 
L 366.021818 281.51353 
L 369.268364 281.501747 
L 372.514909 281.313957 
L 375.761455 280.97175 
L 379.008 280.542809 
L 382.254545 280.135581 
L 385.501091 279.877709 
L 388.747636 279.880135 
L 391.994182 280.197129 
L 395.240727 280.798382 
L 398.487273 281.568472 
" clip-path="url(#p2c0427991e)" style="fill: none; stroke: #008000; stroke-width: 1.5; stroke-linecap: square"/>
   </g>
   <g id="line2d_14">
    <path d="M 73.832727 281.568472 
L 77.079273 281.568472 
L 80.325818 281.568472 
L 83.572364 281.568472 
L 86.818909 281.568472 
L 90.065455 281.568472 
L 93.312 281.568472 
L 96.558545 281.568472 
L 99.805091 281.568472 
L 103.051636 281.568472 
L 106.298182 281.568472 
L 109.544727 281.568472 
L 112.791273 281.568472 
L 116.037818 281.568472 
L 119.284364 281.568472 
L 122.530909 281.568472 
L 125.777455 281.568472 
L 129.024 281.568472 
L 132.270545 281.568472 
L 135.517091 281.568472 
L 138.763636 281.568472 
L 142.010182 281.568472 
L 145.256727 281.568472 
L 148.503273 281.568472 
L 151.749818 281.568472 
L 154.996364 281.568472 
L 158.242909 281.568472 
L 161.489455 281.568472 
L 164.736 281.568472 
L 167.982545 281.568472 
L 171.229091 281.568472 
L 174.475636 281.568472 
L 177.722182 281.568472 
L 180.968727 281.568472 
L 184.215273 281.568472 
L 187.461818 281.568472 
L 190.708364 281.568472 
L 193.954909 281.568472 
L 197.201455 281.568472 
L 200.448 281.568472 
L 203.694545 281.568472 
L 206.941091 62.017888 
L 210.187636 62.017888 
L 213.434182 62.017888 
L 216.680727 62.017888 
L 219.927273 62.017888 
L 223.173818 62.017888 
L 226.420364 62.017888 
L 229.666909 62.017888 
L 232.913455 62.017888 
L 236.16 62.017888 
L 239.406545 62.017888 
L 242.653091 62.017888 
L 245.899636 62.017888 
L 249.146182 62.017888 
L 252.392727 62.017888 
L 255.639273 62.017888 
L 258.885818 62.017888 
L 262.132364 62.017888 
L 265.378909 62.017888 
L 268.625455 281.568472 
L 271.872 281.568472 
L 275.118545 281.568472 
L 278.365091 281.568472 
L 281.611636 281.568472 
L 284.858182 281.568472 
L 288.104727 281.568472 
L 291.351273 281.568472 
L 294.597818 281.568472 
L 297.844364 281.568472 
L 301.090909 281.568472 
L 304.337455 281.568472 
L 307.584 281.568472 
L 310.830545 281.568472 
L 314.077091 281.568472 
L 317.323636 281.568472 
L 320.570182 281.568472 
L 323.816727 281.568472 
L 327.063273 281.568472 
L 330.309818 281.568472 
L 333.556364 281.568472 
L 336.802909 281.568472 
L 340.049455 281.568472 
L 343.296 281.568472 
L 346.542545 281.568472 
L 349.789091 281.568472 
L 353.035636 281.568472 
L 356.282182 281.568472 
L 359.528727 281.568472 
L 362.775273 281.568472 
L 366.021818 281.568472 
L 369.268364 281.568472 
L 372.514909 281.568472 
L 375.761455 281.568472 
L 379.008 281.568472 
L 382.254545 281.568472 
L 385.501091 281.568472 
L 388.747636 281.568472 
L 391.994182 281.568472 
L 395.240727 281.568472 
L 398.487273 281.568472 
" clip-path="url(#p2c0427991e)" style="fill: none; stroke: #ff0000; stroke-width: 1.5; stroke-linecap: square"/>
   </g>
   <g id="patch_3">
    <path d="M 57.6 307.584 
L 57.6 41.472 
" style="fill: none; stroke: #000000; stroke-width: 0.8; stroke-linejoin: miter; stroke-linecap: square"/>
   </g>
   <g id="patch_4">
    <path d="M 414.72 307.584 
L 414.72 41.472 
" style="fill: none; stroke: #000000; stroke-width: 0.8; stroke-linejoin: miter; stroke-linecap: square"/>
   </g>
   <g id="patch_5">
    <path d="M 57.6 307.584 
L 414.72 307.584 
" style="fill: none; stroke: #000000; stroke-width: 0.8; stroke-linejoin: miter; stroke-linecap: square"/>
   </g>
   <g id="patch_6">
    <path d="M 57.6 41.472 
L 414.72 41.472 
" style="fill: none; stroke: #000000; stroke-width: 0.8; stroke-linejoin: miter; stroke-linecap: square"/>
   </g>
   <g id="legend_1">
    <g id="patch_7">
     <path d="M 288.887188 78.82825 
L 407.72 78.82825 
Q 409.72 78.82825 409.72 76.82825 
L 409.72 48.472 
Q 409.72 46.472 407.72 46.472 
L 288.887188 46.472 
Q 286.887188 46.472 286.887188 48.472 
L 286.887188 76.82825 
Q 286.887188 78.82825 288.887188 78.82825 
z
" style="fill: #ffffff; opacity: 0.8; stroke: #cccccc; stroke-linejoin: miter"/>
    </g>
    <g id="line2d_15">
     <path d="M 290.887188 54.570437 
L 300.887188 54.570437 
L 310.887188 54.570437 
" style="fill: none; stroke: #008000; stroke-width: 1.5; stroke-linecap: square"/>
    </g>
    <g id="text_13">
     <text style="font: 10px 'DejaVu Sans', 'Bitstream Vera Sans', 'Computer Modern Sans Serif', 'Lucida Grande', 'Verdana', 'Geneva', 'Lucid', 'Arial', 'Helvetica', 'Avant Garde', sans-serif; text-anchor: start" x="318.887188" y="58.070437" transform="rotate(-0 318.887188 58.070437)">регуляризация</text>
    </g>
    <g id="line2d_16">
     <path d="M 290.887188 69.248562 
L 300.887188 69.248562 
L 310.887188 69.248562 
" style="fill: none; stroke: #ff0000; stroke-width: 1.5; stroke-linecap: square"/>
    </g>
    <g id="text_14">
     <text style="font: 10px 'DejaVu Sans', 'Bitstream Vera Sans', 'Computer Modern Sans Serif', 'Lucida Grande', 'Verdana', 'Geneva', 'Lucid', 'Arial', 'Helvetica', 'Avant Garde', sans-serif; text-anchor: start" x="318.887188" y="72.748562" transform="rotate(-0 318.887188 72.748562)">точное решение</text>
    </g>
   </g>
  </g>
 </g>
 <defs>
  <clipPath id="p2c0427991e">
   <rect x="57.6" y="41.472" width="357.12" height="266.112"/>
  </clipPath>
 </defs>
</svg>
